<?xml version="1.0" standalone="no"?>
<!DOCTYPE svg PUBLIC "-//W3C//DTD SVG 20010904//EN"
 "http://www.w3.org/TR/2001/REC-SVG-20010904/DTD/svg10.dtd">
<svg version="1.0" xmlns="http://www.w3.org/2000/svg"
 width="421.000000pt" height="421.000000pt" viewBox="0 0 421.000000 421.000000"
 preserveAspectRatio="xMidYMid meet">

<g transform="translate(0.000000,421.000000) scale(0.100000,-0.100000)"
fill="#000000" stroke="none">
<path d="M2711 3431 c-2 -31 -50 -85 -153 -172 -99 -84 -128 -111 -95 -93 23
13 102 79 165 138 65 61 97 108 88 129 -3 8 -5 7 -5 -2z"/>
<path d="M1450 3297 c0 -16 24 -53 71 -110 27 -32 49 -62 49 -65 0 -4 -20 -18
-45 -31 -56 -30 -116 -94 -149 -160 -36 -70 -32 -78 5 -11 40 73 92 125 159
158 l55 27 435 6 c255 4 462 3 500 -2 91 -14 178 -57 246 -123 32 -31 59 -55
60 -53 8 8 -105 121 -139 138 -101 52 -119 54 -487 54 -319 1 -352 2 -435 23
-49 11 -115 21 -146 22 -51 0 -61 4 -99 38 -24 20 -51 51 -62 67 -10 17 -18
26 -18 22z"/>
<path d="M2911 3130 c-21 -18 -21 -20 -4 -20 19 0 43 18 43 32 0 13 -13 9 -39
-12z"/>
<path d="M1270 2978 c0 -18 2 -19 18 -7 9 7 18 14 20 15 1 1 -6 4 -18 7 -15 4
-20 0 -20 -15z"/>
<path d="M3016 2961 c-3 -5 1 -11 9 -15 9 -3 15 0 15 9 0 16 -16 20 -24 6z"/>
<path d="M2841 2903 c7 -12 15 -20 18 -17 3 2 -3 12 -13 22 -17 16 -18 16 -5
-5z"/>
<path d="M2881 2804 c0 -11 3 -14 6 -6 3 7 2 16 -1 19 -3 4 -6 -2 -5 -13z"/>
<path d="M1321 2794 c0 -11 3 -14 6 -6 3 7 2 16 -1 19 -3 4 -6 -2 -5 -13z"/>
<path d="M1311 2754 c0 -11 3 -14 6 -6 3 7 2 16 -1 19 -3 4 -6 -2 -5 -13z"/>
<path d="M1230 2724 c0 -14 4 -23 10 -19 6 3 10 15 10 26 0 10 -4 19 -10 19
-5 0 -10 -12 -10 -26z"/>
<path d="M2902 2720 c0 -14 2 -19 5 -12 2 6 2 18 0 25 -3 6 -5 1 -5 -13z"/>
<path d="M3070 2720 c0 -5 -13 -10 -30 -10 -34 0 -35 -2 -15 -33 20 -31 14
-274 -9 -336 -9 -24 -17 -55 -17 -70 -1 -26 -1 -26 -10 4 -6 23 -7 17 -4 -24
4 -54 23 -90 32 -63 3 7 11 19 19 27 25 25 36 121 38 322 0 106 0 193 -1 193
-2 0 -3 -4 -3 -10z"/>
<path d="M1301 2704 c0 -11 3 -14 6 -6 3 7 2 16 -1 19 -3 4 -6 -2 -5 -13z"/>
<path d="M2913 2655 c0 -22 2 -30 4 -17 2 12 2 30 0 40 -3 9 -5 -1 -4 -23z"/>
<path d="M1292 2645 c0 -16 2 -22 5 -12 2 9 2 23 0 30 -3 6 -5 -1 -5 -18z"/>
<path d="M1282 2590 c0 -14 2 -19 5 -12 2 6 2 18 0 25 -3 6 -5 1 -5 -13z"/>
<path d="M2921 2584 c0 -11 3 -14 6 -6 3 7 2 16 -1 19 -3 4 -6 -2 -5 -13z"/>
<path d="M1231 2512 c-1 -38 -4 -44 -31 -53 -16 -6 -31 -18 -34 -27 -14 -50
-17 -82 -8 -82 19 0 42 -31 42 -56 0 -15 6 -24 15 -24 8 0 15 7 15 16 0 31 42
133 62 151 18 16 41 18 212 18 257 -1 371 -28 399 -94 13 -30 37 -31 37 0 0
32 36 59 79 59 47 0 92 -32 88 -63 -3 -30 30 -36 35 -6 4 31 52 57 139 75 93
20 460 17 496 -4 31 -17 60 -78 69 -141 4 -28 10 -51 13 -51 12 0 31 24 31 40
0 8 14 23 31 32 27 16 29 21 24 55 -4 21 -8 43 -10 50 -5 14 -118 50 -189 60
-83 12 -405 8 -476 -6 -36 -7 -84 -24 -107 -37 -24 -14 -43 -21 -43 -17 0 5
-13 16 -29 26 -39 23 -118 23 -144 0 -22 -20 -67 -25 -60 -7 5 13 -43 28 -59
18 -6 -4 -8 -3 -5 3 16 26 -310 60 -460 48 l-83 -7 -1 34 -2 33 -6 -33 c-3
-18 -10 -33 -16 -33 -5 0 -13 15 -16 33 -6 31 -6 31 -8 -10z m1296 -49 c-20
-2 -52 -2 -70 0 -17 2 0 4 38 4 39 0 53 -2 32 -4z m-200 -9 c-3 -3 -12 -4 -19
-1 -8 3 -5 6 6 6 11 1 17 -2 13 -5z"/>
<path d="M2931 2534 c0 -11 3 -14 6 -6 3 7 2 16 -1 19 -3 4 -6 -2 -5 -13z"/>
<path d="M2941 2494 c0 -11 3 -14 6 -6 3 7 2 16 -1 19 -3 4 -6 -2 -5 -13z"/>
<path d="M2952 2445 c0 -16 2 -22 5 -12 2 9 2 23 0 30 -3 6 -5 -1 -5 -18z"/>
<path d="M2961 2394 c0 -11 3 -14 6 -6 3 7 2 16 -1 19 -3 4 -6 -2 -5 -13z"/>
<path d="M1483 2339 c-49 -24 -93 -72 -93 -100 0 -12 4 -17 11 -14 6 4 8 9 5
12 -10 10 87 73 113 73 5 0 3 -13 -5 -30 -9 -16 -14 -48 -12 -72 l3 -42 64
-14 c70 -15 142 -9 161 13 16 20 28 19 33 -2 3 -12 7 -7 12 15 l8 33 29 -28
29 -28 -11 30 c-17 45 -98 124 -155 151 -64 30 -135 31 -192 3z m131 -51 c8
-14 7 -21 -6 -34 -30 -30 -75 9 -48 42 16 18 39 15 54 -8z"/>
<path d="M2460 2331 c-19 -4 -52 -15 -72 -24 -50 -21 -138 -110 -138 -139 0
-20 3 -19 38 15 21 20 41 37 45 37 4 0 7 -18 7 -39 0 -22 5 -43 10 -46 17 -11
154 -18 193 -11 23 4 37 13 40 26 6 24 27 27 27 3 0 -12 3 -14 11 -6 12 12 8
85 -6 117 -7 17 -6 17 16 6 13 -7 41 -26 62 -42 45 -36 48 -22 5 27 -56 64
-152 95 -238 76z m-5 -75 c0 -31 -31 -44 -52 -23 -17 17 -17 19 2 33 25 19 50
14 50 -10z"/>
<path d="M1247 2317 c-3 -8 -2 -29 3 -48 8 -33 8 -33 9 14 1 48 -3 58 -12 34z"/>
<path d="M2794 2243 c8 -16 19 -48 26 -72 9 -33 14 -41 21 -30 6 10 9 10 9 2
0 -7 5 -13 10 -13 6 0 10 14 10 30 0 17 -4 30 -10 30 -5 0 -10 7 -10 15 0 14
-48 65 -63 65 -4 0 -1 -12 7 -27z"/>
<path d="M1291 2231 c-16 -28 -32 -116 -19 -103 10 10 39 114 33 120 -2 2 -8
-6 -14 -17z"/>
<path d="M1130 2210 c0 -5 14 -22 31 -37 59 -53 75 -115 84 -316 5 -125 5
-128 -17 -137 -22 -10 -22 -10 3 -5 25 5 27 2 44 -63 23 -95 67 -181 134 -264
77 -97 264 -278 322 -311 66 -39 173 -59 320 -61 l126 -1 24 -69 c42 -126 159
-274 279 -356 95 -64 97 -60 17 21 l-78 80 81 87 c139 150 237 312 295 490 26
80 41 96 63 69 7 -8 7 -31 -3 -75 -12 -61 -12 -63 6 -46 10 9 24 32 31 50 7
21 20 35 35 39 16 4 26 15 30 35 3 16 9 27 14 24 9 -5 13 16 9 50 -1 10 -17
54 -35 98 l-34 80 25 40 c22 35 29 39 56 36 30 -5 30 -5 9 11 -20 16 -20 18
-6 116 17 119 18 128 6 121 -4 -3 -14 -34 -21 -68 -14 -73 -147 -325 -207
-392 -93 -103 -378 -343 -455 -382 -70 -35 -194 -48 -345 -35 -202 18 -239 35
-356 163 -119 130 -221 251 -257 304 -72 104 -100 218 -100 409 0 125 -5 159
-21 149 -5 -3 -9 3 -9 13 -1 26 -35 98 -59 122 -22 22 -41 27 -41 11z m1526
-970 c-7 -19 -19 -50 -25 -67 -7 -18 -18 -33 -23 -33 -7 0 -7 4 0 13 5 6 13
23 17 37 10 34 37 91 41 87 2 -1 -3 -18 -10 -37z m-337 -401 c6 -18 11 -39 11
-48 0 -27 -29 10 -36 47 -8 42 10 42 25 1z m96 -179 c10 -11 16 -20 13 -20 -3
0 -13 9 -23 20 -10 11 -16 20 -13 20 3 0 13 -9 23 -20z"/>
<path d="M1251 2204 c0 -11 3 -14 6 -6 3 7 2 16 -1 19 -3 4 -6 -2 -5 -13z"/>
<path d="M3108 2133 c-24 -26 -48 -65 -48 -77 0 -3 20 15 45 39 24 25 49 45
55 45 5 0 10 5 10 10 0 20 -37 9 -62 -17z"/>
<path d="M1858 1875 c-12 -13 12 -81 37 -102 34 -30 98 -46 147 -38 45 8 93
47 103 85 l7 25 -23 -21 c-39 -35 -64 -44 -121 -44 -69 0 -119 26 -134 69 -5
17 -13 29 -16 26z"/>
<path d="M1775 1599 c100 -33 248 -45 374 -31 60 7 135 21 168 32 39 13 46 18
23 14 -19 -2 -80 -12 -135 -20 -113 -18 -281 -13 -398 12 -92 19 -105 16 -32
-7z"/>
<path d="M2890 1110 c-13 -28 -28 -54 -33 -57 -5 -3 -4 5 3 17 7 13 16 36 20
51 8 26 7 28 -10 19 -23 -12 -39 -33 -156 -209 -102 -153 -133 -211 -134 -249
0 -20 4 -22 35 -20 19 1 35 7 35 13 0 25 80 140 166 237 103 118 126 148 147
201 19 43 9 49 -16 10 l-18 -28 3 29 c5 48 -17 40 -42 -14z"/>
</g>
</svg>
