<?xml version="1.0" standalone="no"?>
<!DOCTYPE svg PUBLIC "-//W3C//DTD SVG 20010904//EN"
 "http://www.w3.org/TR/2001/REC-SVG-20010904/DTD/svg10.dtd">
<svg version="1.0" xmlns="http://www.w3.org/2000/svg"
 width="180.000000pt" height="180.000000pt" viewBox="0 0 180.000000 180.000000"
 preserveAspectRatio="xMidYMid meet">

<g transform="translate(0.000000,180.000000) scale(0.100000,-0.100000)"
fill="#000000" stroke="none">
<path d="M460 1770 c-13 -9 -13 -10 0 -9 8 0 24 4 35 9 l20 9 -20 0 c-11 0
-27 -4 -35 -9z"/>
<path d="M545 1763 c-35 -6 -119 -33 -135 -43 -23 -15 4 -12 45 6 21 8 34 10
30 4 -9 -15 -112 -60 -137 -60 -11 0 -29 -11 -40 -25 -12 -16 -29 -25 -48 -25
-15 0 -33 -6 -39 -14 -10 -12 -8 -15 11 -19 18 -3 16 -5 -9 -6 -17 0 -34 -4
-36 -8 -3 -5 18 -7 46 -6 59 3 55 0 -25 -16 -34 -7 -59 -18 -62 -28 -5 -12 -3
-13 6 -6 7 5 22 13 33 17 19 6 19 5 -1 -11 -14 -12 -24 -34 -27 -63 -5 -41 -5
-43 6 -18 17 36 41 23 32 -18 l-6 -29 14 24 c10 17 16 20 19 10 3 -8 9 3 13
23 4 20 4 41 0 47 -3 6 -2 11 4 11 5 0 13 -4 16 -10 3 -5 16 -10 27 -10 20 0
20 1 5 18 -10 10 -17 22 -17 25 0 14 36 6 60 -13 27 -21 40 -25 40 -12 0 4
-14 13 -31 19 -29 11 -30 13 -15 28 13 13 20 14 38 4 21 -11 22 -11 9 4 -7 10
-19 17 -27 17 -26 0 -24 19 4 34 15 8 50 33 77 55 46 38 85 55 70 31 -9 -14
-3 -13 46 10 53 24 70 25 63 5 -4 -8 -10 -12 -15 -9 -5 3 -17 0 -26 -5 -15 -9
-12 -10 15 -11 19 0 45 -9 59 -20 31 -24 27 -25 -20 -5 -20 8 -39 15 -42 15
-8 0 -6 -30 3 -31 4 -1 17 -3 30 -4 12 -1 30 -9 40 -17 9 -8 30 -20 46 -26 16
-7 26 -15 23 -19 -3 -3 -23 3 -44 14 -41 21 -150 33 -123 13 12 -9 10 -10 -10
-9 -51 4 -110 -1 -110 -10 0 -4 30 -8 68 -9 96 0 110 -1 117 -12 4 -6 -10 -10
-32 -11 -21 0 -47 -4 -58 -8 -18 -8 -16 -10 15 -19 25 -7 29 -10 13 -11 -29
-1 -37 -16 -22 -42 9 -17 8 -20 -2 -17 -8 3 -18 19 -23 36 -5 19 -15 32 -25
32 -14 0 -14 -2 -1 -10 11 -7 11 -10 2 -10 -7 0 -11 -4 -7 -9 3 -5 -7 -11 -22
-13 -25 -4 -24 -5 17 -17 38 -11 42 -15 25 -22 l-20 -8 20 -2 c11 -1 27 -2 35
-3 8 -1 31 -13 50 -27 37 -28 108 -50 96 -30 -4 6 -17 11 -29 11 -28 0 -67 26
-67 44 0 23 37 26 56 5 9 -10 23 -19 30 -19 8 0 16 -11 20 -25 4 -17 21 -33
48 -47 l41 -20 -24 26 c-14 14 -22 29 -18 32 3 3 13 -3 23 -14 26 -31 84 -141
84 -160 0 -12 -4 -9 -13 8 -7 14 -21 26 -32 27 -16 2 -15 1 4 -7 20 -9 22 -15
17 -41 -5 -26 -3 -29 7 -20 8 6 17 8 20 4 10 -10 8 -66 -4 -123 -6 -27 -9 -56
-6 -63 4 -11 28 57 41 116 4 15 11 25 17 22 5 -4 17 12 27 34 15 35 27 46 84
73 38 18 68 36 68 40 0 11 -83 -24 -107 -45 l-22 -20 2 42 c1 22 5 41 9 41 13
0 -4 61 -28 104 -13 23 -24 50 -24 60 0 75 -171 276 -247 291 -24 4 -39 3 -41
-4 -2 -6 -13 -11 -23 -11 -11 0 -30 -5 -42 -11 -20 -9 -20 -9 2 11 27 23 26
28 -4 23z m145 -53 c0 -5 -6 -10 -14 -10 -8 0 -18 5 -21 10 -3 6 3 10 14 10
12 0 21 -4 21 -10z m-300 -50 c-55 -44 -65 -50 -80 -50 -11 1 -10 4 5 12 11 6
22 14 25 18 5 8 62 39 70 39 3 0 -6 -9 -20 -19z m190 -193 c10 -4 8 -6 -6 -6
-12 -1 -25 6 -28 15 -5 13 -3 14 6 7 7 -6 20 -13 28 -16z m-350 -7 c0 -5 -2
-10 -4 -10 -3 0 -8 5 -11 10 -3 6 -1 10 4 10 6 0 11 -4 11 -10z m637 -242 c-3
-8 -6 -5 -6 6 -1 11 2 17 5 13 3 -3 4 -12 1 -19z"/>
<path d="M363 1710 c-13 -5 -23 -11 -23 -14 0 -7 40 6 46 15 6 10 6 10 -23 -1z"/>
<path d="M490 1675 c-19 -7 -28 -14 -20 -14 13 -1 13 -2 0 -11 -20 -13 -33
-13 -24 1 4 6 -3 5 -17 -2 l-24 -14 24 -3 c13 -2 33 1 45 7 12 5 32 12 46 14
22 4 22 4 -5 6 l-30 2 30 14 c39 17 21 18 -25 0z"/>
<path d="M362 1607 c-21 -12 -20 -13 17 -12 21 0 37 3 35 7 -2 3 4 9 13 11 10
3 5 5 -12 5 -16 1 -40 -4 -53 -11z"/>
<path d="M477 1570 c-20 -4 -41 -10 -45 -15 -10 -11 71 4 83 16 5 5 7 8 5 8
-3 -1 -22 -5 -43 -9z"/>
<path d="M1648 1523 c7 -3 16 -2 19 1 4 3 -2 6 -13 5 -11 0 -14 -3 -6 -6z"/>
<path d="M385 1500 c3 -5 13 -10 21 -10 8 0 14 5 14 10 0 6 -9 10 -21 10 -11
0 -17 -4 -14 -10z"/>
<path d="M1382 1490 c0 -14 2 -19 5 -12 2 6 2 18 0 25 -3 6 -5 1 -5 -13z"/>
<path d="M344 1459 c14 -17 24 -35 20 -40 -3 -5 0 -9 5 -9 6 0 11 7 11 16 0
13 7 15 30 10 19 -3 29 -2 25 4 -3 6 -16 10 -28 10 -12 0 -33 9 -47 20 -37 29
-45 24 -16 -11z"/>
<path d="M377 1479 c7 -7 15 -10 18 -7 3 3 -2 9 -12 12 -14 6 -15 5 -6 -5z"/>
<path d="M1450 1461 c-36 -15 -81 -35 -100 -43 -19 -8 -43 -18 -53 -21 -10 -4
-15 -11 -12 -17 4 -6 28 1 63 19 31 17 73 36 92 44 63 24 105 46 90 45 -8 0
-44 -12 -80 -27z"/>
<path d="M250 1471 c0 -6 8 -14 17 -19 16 -10 28 -42 15 -42 -4 0 -6 -21 -5
-47 2 -34 0 -42 -6 -28 -7 17 -9 14 -13 -18 -5 -44 9 -44 35 0 14 24 15 36 7
58 -7 20 -8 31 0 39 15 15 13 20 -20 44 -16 13 -30 18 -30 13z"/>
<path d="M326 1442 c-3 -6 -1 -14 5 -17 14 -9 20 -2 10 14 -6 8 -11 9 -15 3z"/>
<path d="M1478 1423 c7 -3 16 -2 19 1 4 3 -2 6 -13 5 -11 0 -14 -3 -6 -6z"/>
<path d="M240 1406 c0 -8 4 -17 9 -20 5 -4 7 3 4 14 -6 23 -13 26 -13 6z"/>
<path d="M212 1380 c0 -19 2 -27 5 -17 2 9 2 25 0 35 -3 9 -5 1 -5 -18z"/>
<path d="M142 1378 c-7 -7 -12 -23 -12 -37 0 -30 15 -17 24 22 7 30 5 32 -12
15z"/>
<path d="M1191 1349 c-29 -16 -46 -29 -38 -29 8 0 18 -6 20 -12 4 -8 8 -5 12
8 4 12 23 31 43 42 55 32 25 25 -37 -9z"/>
<path d="M1578 1363 c7 -3 16 -2 19 1 4 3 -2 6 -13 5 -11 0 -14 -3 -6 -6z"/>
<path d="M157 1323 c-5 -18 -6 -37 -2 -42 3 -6 -1 -21 -8 -33 -12 -19 -12 -28
-3 -51 11 -25 14 -27 26 -12 10 13 15 13 21 3 6 -9 9 -6 9 10 0 14 -4 21 -11
16 -10 -6 -8 25 7 78 3 9 0 19 -6 23 -6 4 -11 -8 -12 -32 -1 -31 -2 -28 -7 17
-6 52 -7 53 -14 23z"/>
<path d="M1236 1324 c-5 -14 -4 -15 9 -4 17 14 19 20 6 20 -5 0 -12 -7 -15
-16z"/>
<path d="M667 1320 c-58 -7 -107 -26 -107 -41 0 -4 15 -5 33 -3 60 9 165 6
187 -6 20 -10 21 -10 11 8 -9 17 -55 54 -63 51 -2 -1 -29 -5 -61 -9z"/>
<path d="M210 1285 c0 -14 4 -25 9 -25 4 0 6 11 3 25 -2 14 -6 25 -8 25 -2 0
-4 -11 -4 -25z"/>
<path d="M376 1295 c-17 -13 -14 -14 35 -9 30 3 62 7 72 9 9 2 17 -1 17 -7 0
-5 5 -6 10 -3 22 14 -4 25 -58 25 -34 -1 -65 -7 -76 -15z"/>
<path d="M1498 1259 c-21 -11 -38 -22 -38 -24 0 -5 79 32 89 41 12 11 -18 1
-51 -17z"/>
<path d="M239 1251 c-10 -12 -14 -29 -11 -50 2 -17 0 -37 -5 -44 -5 -6 -6 -28
-3 -47 8 -41 17 -26 23 40 3 25 9 62 15 83 11 40 6 45 -19 18z"/>
<path d="M292 1261 c-8 -5 -12 -22 -10 -42 l3 -34 11 43 c6 23 11 42 10 42 -1
0 -7 -4 -14 -9z"/>
<path d="M510 1250 c0 -5 7 -10 16 -10 8 0 12 5 9 10 -3 6 -10 10 -16 10 -5 0
-9 -4 -9 -10z"/>
<path d="M575 1250 c-28 -7 -29 -8 -8 -15 12 -4 24 -12 26 -19 2 -6 3 -3 1 7
-1 9 5 21 14 27 19 11 10 11 -33 0z"/>
<path d="M350 1220 c-13 -8 -12 -10 3 -10 9 0 17 5 17 10 0 12 -1 12 -20 0z"/>
<path d="M385 1220 c3 -5 15 -10 26 -10 10 0 19 5 19 10 0 6 -12 10 -26 10
-14 0 -23 -4 -19 -10z"/>
<path d="M440 1220 c0 -5 5 -10 11 -10 5 0 7 5 4 10 -3 6 -8 10 -11 10 -2 0
-4 -4 -4 -10z"/>
<path d="M634 1219 c-4 -7 -1 -10 7 -7 8 3 22 1 32 -4 9 -5 23 -5 30 -1 6 4
21 7 32 5 l20 -2 -20 9 c-29 14 -93 13 -101 0z"/>
<path d="M1485 1210 c-3 -5 -2 -10 4 -10 5 0 13 5 16 10 3 6 2 10 -4 10 -5 0
-13 -4 -16 -10z"/>
<path d="M1611 1198 l-14 -23 24 20 c13 11 26 21 28 22 2 2 -2 3 -10 3 -8 0
-20 -10 -28 -22z"/>
<path d="M1341 1183 c0 -25 1 -26 9 -8 12 27 12 35 0 35 -5 0 -10 -12 -9 -27z"/>
<path d="M1661 1197 c-1 -10 -7 -20 -15 -23 -8 -3 -17 -13 -21 -22 -4 -11 4
-7 21 9 14 15 24 33 21 40 -4 10 -6 8 -6 -4z"/>
<path d="M1246 1185 c-3 -8 -1 -15 4 -15 13 0 22 18 11 24 -5 3 -11 -1 -15 -9z"/>
<path d="M439 1173 c-13 -16 -12 -17 4 -4 9 7 17 15 17 17 0 8 -8 3 -21 -13z"/>
<path d="M1684 1175 c-10 -8 -14 -15 -8 -15 5 0 19 7 30 15 10 8 14 15 8 15
-5 0 -19 -7 -30 -15z"/>
<path d="M581 1137 c-1 -26 -8 -59 -17 -72 -18 -27 -5 -35 16 -10 7 8 16 12
21 9 5 -3 9 0 9 5 0 6 5 11 11 11 6 0 9 -7 5 -15 -3 -8 -1 -15 4 -15 19 0 10
-17 -15 -28 -15 -7 -27 -8 -30 -2 -3 5 -16 9 -28 9 -12 0 -33 2 -47 5 -20 5
-21 5 -5 -2 11 -5 22 -19 25 -32 3 -13 12 -26 19 -28 10 -3 12 0 8 11 -10 25
11 30 24 6 10 -19 8 -25 -12 -41 l-24 -19 23 6 c13 4 22 2 22 -4 0 -6 -10 -12
-22 -12 -18 -1 -17 -3 7 -8 17 -4 45 -7 63 -5 29 2 31 0 20 -14 -7 -9 1 -5 19
8 38 27 48 49 28 56 -18 7 -37 -4 -29 -18 5 -7 -5 -8 -32 -3 -21 4 -42 9 -46
11 -11 7 10 55 30 70 14 10 18 10 24 -4 9 -23 -3 77 -14 108 l-8 25 3 -26 c3
-22 0 -26 -18 -26 -16 0 -21 4 -19 16 3 9 0 30 -5 46 -9 28 -9 27 -10 -18z"/>
<path d="M1308 1163 c7 -3 16 -2 19 1 4 3 -2 6 -13 5 -11 0 -14 -3 -6 -6z"/>
<path d="M182 1135 c0 -16 2 -22 5 -12 2 9 2 23 0 30 -3 6 -5 -1 -5 -18z"/>
<path d="M811 1098 c-18 -91 -19 -136 -4 -134 7 1 16 6 20 11 4 4 2 5 -4 1
-16 -9 -16 8 -2 90 15 86 6 115 -10 32z"/>
<path d="M1168 1138 c5 -5 16 -8 23 -6 8 3 3 7 -10 11 -17 4 -21 3 -13 -5z"/>
<path d="M1678 1143 c7 -3 16 -2 19 1 4 3 -2 6 -13 5 -11 0 -14 -3 -6 -6z"/>
<path d="M1625 1130 c-13 -6 -15 -9 -5 -9 8 0 22 4 30 9 18 12 2 12 -25 0z"/>
<path d="M1250 1122 c0 -5 12 -14 27 -21 28 -13 28 -13 9 8 -20 22 -36 27 -36
13z"/>
<path d="M1093 1108 c-6 -7 -13 -21 -16 -31 -5 -14 -3 -16 10 -9 9 6 17 19 18
31 2 24 1 25 -12 9z"/>
<path d="M1440 1096 c0 -14 4 -27 8 -30 5 -3 6 8 4 25 -5 35 -12 38 -12 5z"/>
<path d="M1153 1103 c-13 -2 -23 -9 -23 -14 0 -13 22 -10 44 6 20 15 19 16
-21 8z"/>
<path d="M932 1086 c-36 -21 -38 -27 -4 -15 18 6 32 15 32 20 0 5 -1 9 -2 8
-2 -1 -13 -7 -26 -13z"/>
<path d="M1362 1080 c0 -14 2 -19 5 -12 2 6 2 18 0 25 -3 6 -5 1 -5 -13z"/>
<path d="M931 1014 c-7 -19 -19 -38 -27 -41 -8 -3 -14 -15 -14 -27 0 -15 11
-3 35 37 37 62 39 67 27 67 -4 0 -14 -16 -21 -36z"/>
<path d="M588 1033 c7 -3 16 -2 19 1 4 3 -2 6 -13 5 -11 0 -14 -3 -6 -6z"/>
<path d="M110 1007 c0 -14 5 -29 10 -32 7 -4 8 3 4 22 -9 38 -14 42 -14 10z"/>
<path d="M1670 991 c0 -5 -3 -16 -6 -25 -3 -9 -1 -16 6 -16 6 0 9 4 5 9 -3 5
-1 12 5 16 13 8 13 25 0 25 -5 0 -10 -4 -10 -9z"/>
<path d="M873 930 c0 -36 2 -50 4 -32 2 17 2 47 0 65 -2 17 -4 3 -4 -33z"/>
<path d="M1620 980 c-9 -6 -10 -10 -3 -10 6 0 15 5 18 10 8 12 4 12 -15 0z"/>
<path d="M762 958 c-7 -7 -12 -17 -12 -24 0 -6 -19 -32 -42 -58 -28 -33 -38
-50 -29 -55 20 -13 1 -39 -47 -66 -28 -16 -55 -24 -68 -21 -12 3 -27 0 -33 -8
-7 -8 -28 -17 -49 -21 -30 -5 -33 -9 -20 -16 10 -5 43 -13 75 -17 37 -5 57
-12 55 -20 -1 -7 11 -15 28 -18 41 -9 48 -21 52 -84 3 -49 6 -55 27 -58 21 -3
23 -1 18 35 -3 21 -8 49 -11 62 -3 14 1 50 10 80 8 31 16 70 18 88 4 35 36 94
47 87 4 -2 11 1 15 7 5 8 3 9 -6 4 -13 -8 -13 -8 6 55 5 16 2 20 -15 20 -24 0
-27 10 -9 28 7 7 10 12 7 12 -3 0 -10 -5 -17 -12z"/>
<path d="M1329 953 c-1 -4 -1 -11 0 -15 0 -5 -3 -8 -8 -8 -10 0 -41 -62 -41
-82 0 -7 9 6 20 30 10 23 28 46 39 50 16 6 17 9 5 20 -8 7 -15 9 -15 5z"/>
<path d="M1490 951 c0 -6 5 -13 10 -16 6 -3 10 1 10 9 0 9 -4 16 -10 16 -5 0
-10 -4 -10 -9z"/>
<path d="M490 940 c-8 -5 -27 -10 -42 -10 -16 0 -28 -4 -28 -10 0 -13 47 -13
55 0 3 5 20 14 38 19 20 6 25 9 12 10 -11 0 -27 -4 -35 -9z"/>
<path d="M1446 941 c-4 -5 3 -7 14 -4 23 6 26 13 6 13 -8 0 -17 -4 -20 -9z"/>
<path d="M1628 943 c7 -3 16 -2 19 1 4 3 -2 6 -13 5 -11 0 -14 -3 -6 -6z"/>
<path d="M960 910 c0 -5 5 -10 11 -10 5 0 7 5 4 10 -3 6 -8 10 -11 10 -2 0 -4
-4 -4 -10z"/>
<path d="M1260 900 c-6 -11 -8 -20 -6 -20 3 0 10 9 16 20 6 11 8 20 6 20 -3 0
-10 -9 -16 -20z"/>
<path d="M563 879 c-18 -5 -33 -14 -33 -20 0 -7 7 -8 18 -3 9 4 31 9 47 10 17
1 34 3 38 3 5 1 5 6 2 11 -7 12 -28 12 -72 -1z"/>
<path d="M1356 859 c-3 -17 -2 -38 3 -47 5 -9 9 -73 10 -142 1 -68 4 -126 7
-129 2 -3 3 75 2 172 -2 169 -8 213 -22 146z"/>
<path d="M1695 850 c-4 -6 -11 -8 -16 -5 -16 10 -10 0 10 -17 18 -15 19 -15
24 3 6 21 -8 35 -18 19z"/>
<path d="M1227 810 c3 -11 7 -20 9 -20 2 0 4 9 4 20 0 11 -4 20 -9 20 -5 0 -7
-9 -4 -20z"/>
<path d="M1271 814 c0 -11 3 -14 6 -6 3 7 2 16 -1 19 -3 4 -6 -2 -5 -13z"/>
<path d="M1599 817 c-15 -11 -14 -14 10 -32 20 -15 23 -15 12 -2 -7 9 -11 24
-7 32 6 18 6 18 -15 2z"/>
<path d="M1730 820 c0 -5 5 -10 10 -10 6 0 10 5 10 10 0 6 -4 10 -10 10 -5 0
-10 -4 -10 -10z"/>
<path d="M843 773 c-53 -18 -55 -33 -6 -29 26 1 39 7 41 18 2 9 13 19 25 21
19 4 19 4 2 5 -11 0 -39 -6 -62 -15z"/>
<path d="M1261 774 c0 -11 3 -14 6 -6 3 7 2 16 -1 19 -3 4 -6 -2 -5 -13z"/>
<path d="M1010 770 c0 -5 5 -10 11 -10 5 0 7 5 4 10 -3 6 -8 10 -11 10 -2 0
-4 -4 -4 -10z"/>
<path d="M1560 755 c-11 -13 -10 -14 4 -9 9 3 16 10 16 15 0 13 -6 11 -20 -6z"/>
<path d="M81 744 c0 -11 3 -14 6 -6 3 7 2 16 -1 19 -3 4 -6 -2 -5 -13z"/>
<path d="M1260 739 c0 -6 -7 -9 -14 -6 -15 6 -12 -16 5 -39 5 -6 10 -66 12
-135 3 -116 3 -113 4 34 0 86 -1 157 -3 157 -2 0 -4 -5 -4 -11z"/>
<path d="M1555 720 c-3 -5 1 -10 9 -10 8 0 18 5 21 10 3 6 -1 10 -9 10 -8 0
-18 -4 -21 -10z"/>
<path d="M1700 712 c6 -13 14 -21 18 -18 3 4 -2 14 -12 24 -18 16 -18 16 -6
-6z"/>
<path d="M1753 695 c0 -8 4 -12 9 -9 5 3 6 10 3 15 -9 13 -12 11 -12 -6z"/>
<path d="M1052 678 c-7 -7 -12 -16 -12 -20 0 -15 15 -8 28 12 13 22 3 27 -16
8z"/>
<path d="M56 627 c3 -10 9 -15 12 -12 3 3 0 11 -7 18 -10 9 -11 8 -5 -6z"/>
<path d="M1650 620 c-9 -6 -10 -10 -3 -10 6 0 15 5 18 10 8 12 4 12 -15 0z"/>
<path d="M1720 620 c0 -5 5 -10 10 -10 6 0 10 5 10 10 0 6 -4 10 -10 10 -5 0
-10 -4 -10 -10z"/>
<path d="M305 580 c21 -22 41 -40 44 -40 3 0 -13 18 -34 40 -21 22 -41 40 -44
40 -3 0 13 -18 34 -40z"/>
<path d="M86 586 c3 -9 0 -24 -7 -33 -13 -15 -12 -15 7 -3 23 14 26 41 6 48
-7 2 -10 -3 -6 -12z"/>
<path d="M201 593 c-8 -3 -30 -16 -49 -29 -19 -13 -61 -31 -93 -40 -33 -9 -59
-22 -59 -30 0 -7 14 -22 31 -34 16 -12 28 -25 25 -28 -3 -3 -14 2 -24 11 -10
10 -21 17 -25 17 -3 0 -5 -103 -4 -230 l2 -230 629 0 c594 0 628 1 621 17 -4
10 -16 61 -26 113 -20 99 -63 203 -95 232 -11 9 -28 25 -40 36 -28 25 -137 68
-223 87 -39 9 -82 26 -96 37 -45 36 -38 12 10 -30 54 -47 57 -73 20 -149 -35
-70 -46 -78 -88 -64 -41 14 -203 119 -231 150 -11 11 -23 21 -28 21 -8 0 -51
27 -175 108 -68 43 -64 42 -82 35z m403 -295 c22 -39 13 -30 -39 37 -33 42
-34 46 -10 23 17 -15 39 -42 49 -60z m-388 -23 c9 -14 14 -28 11 -32 -4 -3
-11 6 -16 20 -5 14 -16 27 -23 30 -9 4 -10 6 -1 6 7 1 20 -10 29 -24z m496
-27 c-7 -7 -12 -8 -12 -2 0 14 12 26 19 19 2 -3 -1 -11 -7 -17z m-16 -63 c5
-35 10 -45 25 -45 11 0 19 -4 19 -10 0 -5 -8 -10 -18 -10 -16 0 -18 -7 -14
-55 3 -35 1 -55 -6 -55 -6 0 -12 25 -14 57 -3 51 -6 58 -28 64 -23 7 -24 8 -5
14 17 5 20 13 17 46 -6 55 15 50 24 -6z"/>
<path d="M1713 583 c-15 -5 -17 -23 -4 -23 5 0 11 7 15 15 3 8 4 15 3 14 -1 0
-8 -3 -14 -6z"/>
<path d="M375 520 c10 -11 20 -20 23 -20 3 0 -3 9 -13 20 -10 11 -20 20 -23
20 -3 0 3 -9 13 -20z"/>
<path d="M1766 486 c4 -18 1 -25 -13 -28 -15 -3 -15 -5 5 -10 20 -5 22 -3 22
28 0 19 -5 34 -10 34 -6 0 -8 -10 -4 -24z"/>
<path d="M1381 414 c1 -49 5 -116 9 -149 4 -36 5 -2 2 85 -5 161 -13 203 -11
64z"/>
<path d="M1610 449 c-6 -11 -10 -25 -8 -30 2 -5 8 4 15 21 13 34 9 40 -7 9z"/>
<path d="M742 410 c0 -14 2 -19 5 -12 2 6 2 18 0 25 -3 6 -5 1 -5 -13z"/>
<path d="M1277 230 c3 -107 9 -203 13 -215 10 -25 1 269 -10 350 -6 38 -7 -10
-3 -135z"/>
<path d="M1780 260 c-9 -6 -10 -10 -3 -10 6 0 15 5 18 10 8 12 4 12 -15 0z"/>
<path d="M1462 223 c-18 -8 -31 -17 -30 -19 8 -7 57 10 62 22 7 17 8 17 -32
-3z"/>
<path d="M1708 223 c7 -3 16 -2 19 1 4 3 -2 6 -13 5 -11 0 -14 -3 -6 -6z"/>
<path d="M1658 213 c7 -3 16 -2 19 1 4 3 -2 6 -13 5 -11 0 -14 -3 -6 -6z"/>
<path d="M1397 110 c2 -56 0 -80 -8 -80 -8 0 -8 -4 1 -15 13 -15 35 -21 26 -7
-2 4 -6 47 -7 95 -2 48 -6 87 -10 87 -3 0 -5 -36 -2 -80z"/>
<path d="M1666 133 c-6 -14 -5 -15 5 -6 7 7 10 15 7 18 -3 3 -9 -2 -12 -12z"/>
<path d="M1510 50 c0 -5 5 -10 11 -10 5 0 7 5 4 10 -3 6 -8 10 -11 10 -2 0 -4
-4 -4 -10z"/>
</g>
</svg>
